#!OML:ASF E:\pregnant2\Project 1\Capture day 1\Session 1\pregnant2.ASF
:FULLY-SPECIFIED
:DEGREES
1087
root 3.95319 17.1545 44.4774 31.7088 17.3119 -1.03883
lowerback -24.96 -3.21609 -1.95328
upperback -15.4901 -3.54985 2.33827
thorax -3.08613 -1.43656 2.86775
lowerneck -10.9951 -1.16436 -3.36297
upperneck 50.3643 0.193806 -0.884406
head 23.5714 -0.587639 0.255943
rclavicle -3.38182e-014 -1.6201e-014
rhumerus 76.9277 -30.9469 0.893155
rradius 30.1659
rwrist 52.2383
rhand -36.8463 -10.4421
rfingers 7.12502
rthumb -9.9264 -40.188
lclavicle -3.38182e-014 -1.6201e-014
lhumerus 69.882 32.604 -4.57609
lradius 32.6945
lwrist -45.7294
lhand -45.8366 8.85924
lfingers 7.12502
lthumb -18.5885 37.9911
rfemur -38.2588 11.5788 16.3511
rtibia 19.4657
rfoot -12.5133 -16.4434
rtoes -0.737592
lfemur -41.5946 -16.0161 -12.1094
ltibia 20.9544
lfoot -5.40207 18.1102
ltoes -17.459
1088
root 3.95412 17.1538 44.4734 31.6981 17.2696 -1.03128
lowerback -24.9282 -3.20744 -1.97198
upperback -15.5031 -3.53573 2.32034
thorax -3.11717 -1.42849 2.8637
lowerneck -11.0221 -1.16673 -3.35564
upperneck 50.3473 0.177513 -0.866028
head 23.5654 -0.590297 0.261376
rclavicle -8.07563e-015 -2.9122e-014
rhumerus 76.9342 -30.9152 0.840465
rradius 30.1657
rwrist 52.2682
rhand -36.8475 -10.4445
rfingers 7.12502
rthumb -9.92754 -40.1904
lclavicle -8.07563e-015 -2.9122e-014
lhumerus 70.0054 32.5719 -4.43163
lradius 32.6529
lwrist -45.8491
lhand -45.7834 9.5716
lfingers 7.12502
lthumb -18.5373 38.7083
rfemur -38.2868 11.6245 16.3039
rtibia 19.4988
rfoot -12.5169 -16.4637
rtoes -0.733125
lfemur -41.5854 -15.9952 -12.1423
ltibia 20.9475
lfoot -5.38409 18.1122
ltoes -17.462
1089
root 3.9551 17.153 44.4692 31.6847 17.2303 -1.02674
lowerback -24.8908 -3.19831 -1.98613
upperback -15.5169 -3.52205 2.30331
thorax -3.15184 -1.42087 2.8582
lowerneck -11.0444 -1.17093 -3.35209
upperneck 50.3267 0.158046 -0.845946
head 23.5536 -0.594663 0.267859
rclavicle 4.42296e-015 1.22253e-014
rhumerus 76.9482 -30.8856 0.772365
rradius 30.1684
rwrist 52.3166
rhand -36.8397 -10.4364
rfingers 7.12502
rthumb -9.91995 -40.1827
lclavicle 4.42296e-015 1.22253e-014
lhumerus 70.1862 32.545 -4.20555
lradius 32.5857
lwrist -46.0279
lhand -45.7312 11.849
lfingers 7.12502
lthumb -18.4871 40.9905
rfemur -38.3096 11.6816 16.2544
rtibia 19.5233
rfoot -12.5187 -16.4969
rtoes -0.725313
lfemur -41.5743 -15.971 -12.1738
ltibia 20.9391
lfoot -5.36642 18.1086
ltoes -17.4665
1090
root 3.9565 17.1526 44.4655 31.6712 17.2015 -1.02407
lowerback -24.868 -3.19126 -1.99227
upperback -15.5279 -3.51222 2.28746
thorax -3.17652 -1.41586 2.84793
lowerneck -11.0607 -1.17597 -3.34832
upperneck 50.303 0.137251 -0.827437
head 23.5362 -0.59962 0.273129
rclavicle -2.03133e-014 -2.18663e-015
rhumerus 76.9621 -30.8543 0.708914
rradius 30.1707
rwrist 52.3642
rhand -36.8333 -10.4345
rfingers 7.12502
rthumb -9.91383 -40.1811
lclavicle -2.03133e-014 -2.18663e-015
lhumerus 70.3759 32.5216 -3.96618
lradius 32.5105
lwrist -46.2047
lhand -45.647 14.44
lfingers 7.12502
lthumb -18.4062 43.5892
rfemur -38.3224 11.7241 16.2157
rtibia 19.5399
rfoot -12.52 -16.5221
rtoes -0.717014
lfemur -41.5596 -15.9471 -12.205
ltibia 20.9281
lfoot -5.35143 18.0972
ltoes -17.4846
1091
root 3.95839 17.1528 44.4626 31.6601 17.1853 -1.02365
lowerback -24.8661 -3.18715 -1.99062
upperback -15.5358 -3.50714 2.2742
thorax -3.18771 -1.41384 2.83411
lowerneck -11.071 -1.18148 -3.34445
upperneck 50.2776 0.116553 -0.811707
head 23.5144 -0.604796 0.276837
rclavicle -5.33364e-014 -9.14409e-015
rhumerus 76.9821 -30.824 0.644597
rradius 30.172
rwrist 52.4163
rhand -36.8237 -10.4308
rfingers 7.12502
rthumb -9.90453 -40.1778
lclavicle -5.33364e-014 -9.14409e-015
lhumerus 70.549 32.5053 -3.74507
lradius 32.4377
lwrist -46.3597
lhand -45.5366 17.3608
lfingers 7.12502
lthumb -18.2999 46.52
rfemur -38.3271 11.747 16.1908
rtibia 19.5497
rfoot -12.521 -16.5372
rtoes -0.709368
lfemur -41.5439 -15.9282 -12.2314
ltibia 20.9153
lfoot -5.34202 18.0816
ltoes -17.4918
1092
root 3.96031 17.153 44.4598 31.6529 17.1709 -1.02039
lowerback -24.8696 -3.18509 -1.99256
upperback -15.5442 -3.50382 2.262
thorax -3.19667 -1.41237 2.82288
lowerneck -11.0798 -1.18712 -3.33736
upperneck 50.2529 0.097084 -0.801157
head 23.4929 -0.609456 0.27722
rclavicle 4.8081e-015 -1.33186e-014
rhumerus 77.0071 -30.7939 0.579277
rradius 30.172
rwrist 52.4712
rhand -36.8167 -10.435
rfingers 7.12502
rthumb -9.89778 -40.1823
lclavicle 4.8081e-015 -1.33186e-014
lhumerus 70.6567 32.4912 -3.61665
lradius 32.3864
lwrist -46.4375
lhand -45.4383 19.5992
lfingers 7.12502
lthumb -18.2053 48.7672
rfemur -38.3309 11.7574 16.1687
rtibia 19.5533
rfoot -12.5171 -16.5425
rtoes -0.702546
lfemur -41.5307 -15.9118 -12.2588
ltibia 20.9007
lfoot -5.33358 18.0659
ltoes -17.4996
1093
root 3.96223 17.1534 44.457 31.6489 17.1578 -1.01624
lowerback -24.8792 -3.18333 -1.99622
upperback -15.5509 -3.50039 2.2505
thorax -3.20063 -1.41076 2.81312
lowerneck -11.0909 -1.19305 -3.32942
upperneck 50.2269 0.07784 -0.792351
head 23.4709 -0.614024 0.276502
rclavicle -5.57839e-015 -2.77305e-014
rhumerus 77.0264 -30.7689 0.530259
rradius 30.1712
rwrist 52.5122
rhand -36.8188 -10.4442
rfingers 7.12502
rthumb -9.89984 -40.1914
lclavicle -5.57839e-015 -2.77305e-014
lhumerus 70.6834 32.4828 -3.60475
lradius 32.3636
lwrist -46.4219
lhand -45.3549 21.3503
lfingers 7.12502
lthumb -18.1252 50.5258
rfemur -38.3354 11.7659 16.1461
rtibia 19.5533
rfoot -12.5103 -16.5481
rtoes -0.690177
lfemur -41.5216 -15.8998 -12.2829
ltibia 20.8864
lfoot -5.32831 18.0536
ltoes -17.4863
1094
root 3.96411 17.1537 44.4543 31.6457 17.1467 -1.01382
lowerback -24.8928 -3.18116 -2.00028
upperback -15.5547 -3.49628 2.2412
thorax -3.19931 -1.40874 2.80586
lowerneck -11.1093 -1.20016 -3.32293
upperneck 50.2012 0.058408 -0.785092
head 23.4526 -0.61913 0.275137
rclavicle 1.09083e-014 -1.43622e-014
rhumerus 77.0363 -30.7508 0.500913
rradius 30.1719
rwrist 52.5394
rhand -36.8255 -10.4586
rfingers 7.12502
rthumb -9.90629 -40.2055
lclavicle 1.09083e-014 -1.43622e-014
lhumerus 70.6495 32.4815 -3.67438
lradius 32.3641
lwrist -46.348
lhand -45.3291 22.2874
lfingers 7.12502
lthumb -18.1003 51.4652
rfemur -38.3413 11.7792 16.123
rtibia 19.554
rfoot -12.5025 -16.5607
rtoes -0.686214
lfemur -41.5156 -15.8924 -12.3007
ltibia 20.8738
lfoot -5.32769 18.0457
ltoes -17.4504
1095
root 3.96595 17.1539 44.4517 31.6422 17.1361 -1.01251
lowerback -24.908 -3.17722 -2.00495
upperback -15.5555 -3.48976 2.23284
thorax -3.19383 -1.40549 2.80032
lowerneck -11.137 -1.20791 -3.31867
upperneck 50.1758 0.0396554 -0.778209
head 23.4387 -0.62445 0.274135
rclavicle 1.92945e-014 -2.98177e-016
rhumerus 77.0386 -30.7403 0.483125
rradius 30.1747
rwrist 52.5581
rhand -36.8359 -10.4599
rfingers 7.12502
rthumb -9.9163 -40.2064
lclavicle 1.92945e-014 -2.98177e-016
lhumerus 70.6149 32.4888 -3.74094
lradius 32.3656
lwrist -46.282
lhand -45.3173 22.8122
lfingers 7.12502
lthumb -18.089 51.991
rfemur -38.3466 11.787 16.1048
rtibia 19.5549
rfoot -12.4924 -16.5676
rtoes -0.687828
lfemur -41.5115 -15.8856 -12.3161
ltibia 20.8639
lfoot -5.32943 18.0385
ltoes -17.4111
1096
root 3.96771 17.1539 44.4489 31.638 17.1233 -1.0106
lowerback -24.9199 -3.17315 -2.01343
upperback -15.5531 -3.48252 2.22663
thorax -3.18595 -1.40159 2.79944
lowerneck -11.1768 -1.21617 -3.31817
upperneck 50.1498 0.0213217 -0.769984
head 23.4293 -0.630244 0.274694
rclavicle -1.39398e-014 1.04859e-014
rhumerus 77.0305 -30.7381 0.483351
rradius 30.1804
rwrist 52.5626
rhand -36.8485 -10.463
rfingers 7.12502
rthumb -9.92844 -40.2088
lclavicle -1.39398e-014 1.04859e-014
lhumerus 70.5986 32.5043 -3.77295
lradius 32.3594
lwrist -46.25
lhand -45.3309 22.9649
lfingers 7.12502
lthumb -18.1021 52.1425
rfemur -38.3524 11.7991 16.0835
rtibia 19.5557
rfoot -12.4787 -16.5784
rtoes -0.706787
lfemur -41.5077 -15.8801 -12.331
ltibia 20.8561
lfoot -5.3338 18.0334
ltoes -17.3627
1097
root 3.9695 17.1538 44.446 31.633 17.1105 -1.00949
lowerback -24.9288 -3.16826 -2.02219
upperback -15.5492 -3.4743 2.22235
thorax -3.17766 -1.39711 2.80106
lowerneck -11.2257 -1.22542 -3.32161
upperneck 50.1246 0.00263291 -0.760495
head 23.4248 -0.63683 0.276634
rclavicle 5.79209e-014 1.4561e-014
rhumerus 77.0196 -30.7399 0.488694
rradius 30.1865
rwrist 52.564
rhand -36.8592 -10.4648
rfingers 7.12502
rthumb -9.93879 -40.2102
lclavicle 5.79209e-014 1.4561e-014
lhumerus 70.5508 32.5165 -3.85016
lradius 32.3704
lwrist -46.1817
lhand -45.3406 23.0905
lfingers 7.12502
lthumb -18.1113 52.2673
rfemur -38.3585 11.8184 16.0589
rtibia 19.5564
rfoot -12.4684 -16.596
rtoes -0.722088
lfemur -41.5033 -15.8743 -12.3453
ltibia 20.8477
lfoot -5.33655 18.0276
ltoes -17.319
1098
root 3.97161 17.1539 44.4434 31.6275 17.1042 -1.01024
lowerback -24.9463 -3.16486 -2.02531
upperback -15.5397 -3.46901 2.22054
thorax -3.1588 -1.39463 2.80103
lowerneck -11.2845 -1.23342 -3.32662
upperneck 50.0985 -0.0134648 -0.749926
head 23.4237 -0.642683 0.280014
rclavicle -4.39811e-015 2.08724e-015
rhumerus 77.0049 -30.75 0.498893
rradius 30.1953
rwrist 52.5592
rhand -36.8628 -10.4577
rfingers 7.12502
rthumb -9.94228 -40.2029
lclavicle -4.39811e-015 2.08724e-015
lhumerus 70.5156 32.5299 -3.90692
lradius 32.3806
lwrist -46.1207
lhand -45.3432 23.2119
lfingers 7.12502
lthumb -18.1139 52.3884
rfemur -38.3581 11.8161 16.0485
rtibia 19.554
rfoot -12.4586 -16.5949
rtoes -0.742581
lfemur -41.4967 -15.8707 -12.3583
ltibia 20.8371
lfoot -5.33447 18.019
ltoes -17.3083
